<svg xmlns="http://www.w3.org/2000/svg" xmlns:xlink="http://www.w3.org/1999/xlink" viewBox="0 0 280 288.81"><defs><style>.cls-1{fill:#9cdbf8;}.cls-2{fill:#60cbf5;}.cls-3{fill:#231f20;}.cls-4{fill:url(#linear-gradient);}.cls-5{fill:url(#radial-gradient);}.cls-6{fill:url(#linear-gradient-2);}.cls-7{fill:url(#linear-gradient-3);}.cls-8{fill:url(#linear-gradient-4);}.cls-12,.cls-9{fill:#fff;}.cls-9{opacity:0.4;}.cls-10{fill:url(#radial-gradient-2);}.cls-11{fill:url(#radial-gradient-3);}.cls-13{fill:#3b2314;}.cls-14{fill:#754c28;}</style><linearGradient id="linear-gradient" x1="315.57" y1="103.68" x2="335.19" y2="130" gradientTransform="translate(-64.41 43.27) rotate(4.92)" gradientUnits="userSpaceOnUse"><stop offset="0"/><stop offset="0.02" stop-color="#020101"/><stop offset="0.28" stop-color="#21140b"/><stop offset="0.51" stop-color="#341f12"/><stop offset="0.67" stop-color="#3b2314"/><stop offset="0.75" stop-color="#372113"/><stop offset="0.84" stop-color="#2b190e"/><stop offset="0.93" stop-color="#160d08"/><stop offset="1"/></linearGradient><radialGradient id="radial-gradient" cx="260.83" cy="304.65" r="72.18" gradientTransform="translate(-65.07 -35.72) rotate(-4.28)" gradientUnits="userSpaceOnUse"><stop offset="0.29" stop-color="#ffca05"/><stop offset="0.57" stop-color="#fcc70c"/><stop offset="0.98" stop-color="#f5c01f"/><stop offset="1" stop-color="#f4bf20"/></radialGradient><linearGradient id="linear-gradient-2" x1="-4999.11" y1="2617.55" x2="-4894.65" y2="2636.89" gradientTransform="matrix(-0.59, 0.81, 0.81, 0.59, -4882.17, 2667.36)" xlink:href="#linear-gradient"/><linearGradient id="linear-gradient-3" x1="-5004.14" y1="2644.69" x2="-4899.68" y2="2664.02" gradientTransform="matrix(-0.59, 0.81, 0.81, 0.59, -4882.17, 2667.36)" xlink:href="#linear-gradient"/><linearGradient id="linear-gradient-4" x1="-5010.31" y1="2678.01" x2="-4905.84" y2="2697.34" gradientTransform="matrix(-0.59, 0.81, 0.81, 0.59, -4882.17, 2667.36)" xlink:href="#linear-gradient"/><radialGradient id="radial-gradient-2" cx="399.14" cy="969.83" r="46.14" gradientTransform="matrix(0.72, -0.41, 0.53, 0.85, -662.37, -463.46)" gradientUnits="userSpaceOnUse"><stop offset="0" stop-color="#8a5d3b"/><stop offset="0.2" stop-color="#744d30"/><stop offset="0.53" stop-color="#553621"/><stop offset="0.81" stop-color="#422817"/><stop offset="1" stop-color="#3b2314"/></radialGradient><radialGradient id="radial-gradient-3" cx="103.64" cy="158.12" r="126.08" gradientTransform="matrix(1, -0.06, 0.06, 1, -44.36, -51.61)" gradientUnits="userSpaceOnUse"><stop offset="0.29" stop-color="#ffca05"/><stop offset="1" stop-color="#ffca05"/></radialGradient></defs><g id="Layer_2" data-name="Layer 2"><g id="Layer_1-2" data-name="Layer 1"><path class="cls-1" d="M211.43,164.84c-12.89,25.19-38,47-52.45,41.57s-19-38.35-12.19-65.81c8.43-33.76,33.6-56.61,54.3-48.85S227.27,133.85,211.43,164.84Z"/><path class="cls-1" d="M211.93,194.9c-23.49,11.12-52.8,14.42-58.86,4.25s10.8-34.38,31.77-49.73c25.76-18.89,54.52-24.64,63.2-10.08S240.8,181.24,211.93,194.9Z"/><path class="cls-2" d="M184.84,149.42c-21,15.35-37.82,39.56-31.77,49.73,2.74,4.59,10.21,6.43,19.74,6.06,13.48-5.61,29.27-22.09,38.62-40.37a82.33,82.33,0,0,0,9.06-32.54C209.51,134.66,196.85,140.61,184.84,149.42Z"/><path class="cls-3" d="M96.4,62.7a78.39,78.39,0,0,1,4.23-19.46,63.41,63.41,0,0,1,3.88-8.76,47.53,47.53,0,0,1,5-7.71,32.56,32.56,0,0,1,6.57-6c1.22-.8,2.31-1.7,3.47-2.53s2.25-1.74,3.32-2.73c.56-.47,1.15-.91,1.71-1.4l.85-.75.9-.69c.6-.47,1.19-1,1.79-1.5s1.25-1,1.88-1.47c1.24-1.1,2.61-2,3.94-3.2a55.43,55.43,0,0,0,4.22-3.67l-.29-1.42a22.78,22.78,0,0,0-2.84-.81,22,22,0,0,0-2.87-.47,29.07,29.07,0,0,0-5.75,0c-1,.1-1.92.21-2.88.37s-1.88.43-2.82.68l-1.41.4L118,2.11c-.91.36-1.83.72-2.72,1.14A27.29,27.29,0,0,0,106,10.61a69.25,69.25,0,0,0-6.23,9.89,55.2,55.2,0,0,0-6.23,21.22A64.45,64.45,0,0,0,95,62.86Z"/><path class="cls-3" d="M59.67,66.93A78.07,78.07,0,0,0,49.19,50a63.12,63.12,0,0,0-6.58-7,47.56,47.56,0,0,0-7.31-5.59A32.57,32.57,0,0,0,27.12,34c-1.42-.35-2.75-.83-4.12-1.22s-2.7-.89-4.05-1.47c-.68-.25-1.38-.48-2.07-.75l-1-.41-1.08-.36q-1.08-.36-2.19-.81c-.75-.23-1.5-.49-2.27-.76-1.53-.62-3.13-1-4.78-1.7a52.53,52.53,0,0,1-5.2-2.05L.1,23.06a23.09,23.09,0,0,1,2.42-1.71,20.42,20.42,0,0,1,2.54-1.41A29.89,29.89,0,0,1,10.48,18c.93-.22,1.88-.44,2.83-.61s1.92-.23,2.89-.3l1.46-.1,1.47,0c1,0,2,.07,2.94.17a27.49,27.49,0,0,1,11.14,3.85,68.68,68.68,0,0,1,9.17,7.25,55,55,0,0,1,13,17.91A64.45,64.45,0,0,1,61.08,66.6Z"/><path class="cls-3" d="M86.41,267.55c1.28,4-.62,8.22-4.24,9.38s-7.61-1.16-8.89-5.17.61-8.21,4.24-9.37S85.13,263.54,86.41,267.55Z"/><path class="cls-3" d="M115.51,213.55l-.84,1.93-.85,1.91-1.72,3.8q-1.72,3.78-3.48,7.56c-2.36,5-4.77,10-7.28,15s-5.1,9.9-7.93,14.75c-1.42,2.43-2.89,4.83-4.55,7.18a35.85,35.85,0,0,1-2.73,3.48c-.26.29-.52.57-.81.85s-.59.56-.94.84a7.69,7.69,0,0,1-1.19.8l-.38.19-.43.16a4.16,4.16,0,0,1-1.07.2,2,2,0,0,1-.25-4c-.12,0-.07,0,0-.12a4.13,4.13,0,0,0,.46-.43c.17-.18.35-.39.52-.61s.36-.47.53-.72a35,35,0,0,0,2-3.3c1.23-2.33,2.34-4.79,3.4-7.28,2.1-5,4-10.09,5.83-15.23S97.36,230.19,99,225q1.26-3.91,2.47-7.83l1.19-3.92.59-2,.57-1.94v0a6.22,6.22,0,0,1,11.93,3.52C115.71,213.05,115.61,213.32,115.51,213.55Z"/><polygon class="cls-4" points="227.76 205.85 280 169.34 234.02 229.2 227.76 205.85"/><path class="cls-5" d="M150.42,195.31s7.74,4.45,30.31-4.67,64.64-1.24,66.31,41.25C249,281,147.61,332.56,119.43,227.6Z"/><path class="cls-6" d="M130.78,256.11a78.47,78.47,0,0,0,9.77,13.67A122.92,122.92,0,0,0,172,240.32a97.77,97.77,0,0,0,15.06-30.18,94.92,94.92,0,0,0,3.76-22.23,46.13,46.13,0,0,0-10.1,2.73c-2.56,1-4.93,1.9-7.13,2.61C171.32,211,161.87,235.66,130.78,256.11Z"/><path class="cls-7" d="M204.49,249.56a97.75,97.75,0,0,0,15.07-30.19,95.59,95.59,0,0,0,3.88-26.63,52.15,52.15,0,0,0-16.89-5c1.25,18.05-2.93,59.46-60.6,87.42a55.21,55.21,0,0,0,16.79,10.19C182.26,274.35,195.51,261.81,204.49,249.56Z"/><path class="cls-8" d="M247,231.89c-.48-12-4.17-21.24-9.74-28.12.82,18.69-4.82,57.91-59.77,84.85C212.47,291.42,248.19,261.21,247,231.89Z"/><path class="cls-9" d="M200.88,203c-5-2-3.15-9.41,2.15-8.78,7.74.91,15.75,3.45,22.37,9a44.09,44.09,0,0,1,12.29,16.19c2.11,4.83-4.35,8.75-7.71,4.69A72.31,72.31,0,0,0,200.88,203Z"/><path class="cls-10" d="M151.52,188.32c8.45,11,3,23.33-9.11,32.6s-26.14,12-34.59,1-5.52-27.42,6.55-36.7S143.06,177.32,151.52,188.32Z"/><path class="cls-11" d="M171.3,132.41c3.16,49-35.27,72-84.29,75.15S3.37,192.43.22,143.41,27.82,52.5,76.84,49.35C137.86,45.43,168.15,83.39,171.3,132.41Z"/><path class="cls-12" d="M61.9,118.5c.33,19.23-9.35,34.42-21.61,35.2s-23.8-13-25.94-32.14C12,100.87,21.49,82.07,35.63,81.16S61.54,97.69,61.9,118.5Z"/><path class="cls-13" d="M58.05,112.84c.88,13.74-5.55,25.33-14.37,25.9S27,128.63,26.1,114.89,31.66,89.56,40.48,89,57.17,99.1,58.05,112.84Z"/><path class="cls-14" d="M42.08,115.68,30.59,124.9s4.19,16.87,19.09,9.88l-1.79-17.52Z"/><path class="cls-3" d="M52.65,113.19c.47,7.33-3,13.53-7.67,13.83s-8.91-5.4-9.38-12.74,3-13.52,7.67-13.83S52.18,105.85,52.65,113.19Z"/><path class="cls-12" d="M51.48,101.83a6.49,6.49,0,1,1-6.9-6.06A6.49,6.49,0,0,1,51.48,101.83Z"/><path class="cls-12" d="M53.77,110.2a2.78,2.78,0,1,0-2.59,3A2.78,2.78,0,0,0,53.77,110.2Z"/><path class="cls-9" d="M107.33,61.49a1.81,1.81,0,0,1,1.35-3.28l.08,0a67.63,67.63,0,0,1,8.2,2.33,74,74,0,0,1,15.44,7.59,70.66,70.66,0,0,1,7,5.21c1.12.94,2.23,1.92,3.29,2.93s2.12,2.06,3.1,3.18A66,66,0,0,1,156,94.13c.64,1.35,1.28,2.71,1.88,4.08s1.11,2.79,1.58,4.21.92,2.85,1.26,4.3l.53,2.17a21.77,21.77,0,0,1,.46,2.15c.26,1.41.53,2.82.72,4.25.1.71.22,1.41.31,2.13l.22,2.14c.16,1.43.25,2.87.34,4.3s.09,2.88.11,4.32a73.29,73.29,0,0,1-1.94,17.1l0,.17a3.18,3.18,0,0,1-6.26-.64A130.47,130.47,0,0,0,153.34,129q-1.41-7.69-3.51-15.21c-.35-1.27-.73-2.4-1.09-3.61s-.84-2.33-1.25-3.5-.94-2.29-1.4-3.43S145,101,144.51,99.93a85.12,85.12,0,0,0-18.28-23.78,129.92,129.92,0,0,0-12.18-10C111.86,64.55,109.63,63,107.33,61.49Z"/><path class="cls-3" d="M133.76,263.59c2.33,3.51,1.66,8.07-1.51,10.17s-7.64,1-10-2.54-1.66-8.06,1.51-10.17S131.43,260.08,133.76,263.59Z"/><path class="cls-3" d="M147,203.68l-.28,2.09-.3,2.07-.61,4.12c-.41,2.74-.84,5.49-1.28,8.23-.9,5.48-1.85,10.95-2.9,16.41S139.41,247.52,138,253c-.71,2.72-1.47,5.43-2.41,8.15a37.92,37.92,0,0,1-1.68,4.09c-.17.35-.35.69-.55,1a11.55,11.55,0,0,1-.67,1.06,7.45,7.45,0,0,1-.93,1.1l-.31.28c-.12.09-.23.19-.37.28a4.26,4.26,0,0,1-1,.48,2,2,0,1,1-1.32-3.76c-.13,0-.08,0,0-.13a3.65,3.65,0,0,0,.32-.53c.12-.22.23-.48.34-.74s.21-.55.31-.84a32.35,32.35,0,0,0,1-3.71c.55-2.57.94-5.24,1.28-7.92.67-5.37,1.1-10.8,1.45-16.25s.58-10.91.77-16.38c.09-2.73.17-5.47.23-8.2l.08-4.1,0-2v-2.07a6.22,6.22,0,0,1,12.43.12A5.16,5.16,0,0,1,147,203.68Z"/><path class="cls-12" d="M130.78,115.42c.33,19.23-9.36,34.42-21.61,35.2s-23.81-13-25.94-32.15C80.92,97.79,90.36,79,104.5,78.08S130.42,94.61,130.78,115.42Z"/><path class="cls-13" d="M126.92,109.76c.89,13.74-5.55,25.33-14.37,25.9S95.86,125.55,95,111.81s5.55-25.33,14.37-25.9S126,96,126.92,109.76Z"/><path class="cls-14" d="M111,112.6l-11.48,9.22s4.19,16.87,19.08,9.88l-1.78-17.52Z"/><path class="cls-3" d="M121.53,110.11c.47,7.33-3,13.53-7.68,13.83s-8.91-5.4-9.38-12.74,3-13.52,7.68-13.83S121.06,102.77,121.53,110.11Z"/><path class="cls-12" d="M120.35,98.75a6.49,6.49,0,1,1-6.89-6.07A6.48,6.48,0,0,1,120.35,98.75Z"/><path class="cls-12" d="M122.65,107.12a2.78,2.78,0,1,0-2.59,2.95A2.79,2.79,0,0,0,122.65,107.12Z"/><ellipse class="cls-3" cx="73.87" cy="170.2" rx="8" ry="23.99"/></g></g></svg>