<svg xmlns="http://www.w3.org/2000/svg" viewBox="0 0 80 81.58"><defs><style>.cls-1{fill:#e5e5e5;}.cls-1,.cls-2,.cls-4,.cls-5{fill-rule:evenodd;}.cls-2,.cls-4,.cls-6{fill:#fff;}.cls-3{fill:#a4e14d;}.cls-4{opacity:0.4;}.cls-5{fill:#81c722;}</style></defs><g id="Layer_2" data-name="Layer 2"><g id="Layer_1-2" data-name="Layer 1"><path class="cls-1" d="M40.31,1.43c23-.7,40.84,16.49,39.63,39.69S62.09,81.58,40.08,81.58.21,63.46.21,41.12,17.32,2.13,40.31,1.43Z"/><path class="cls-2" d="M40.1,0c23-.7,40.84,16.49,39.63,39.69S61.88,80.17,39.87,80.17,0,62.05,0,39.71,17.11.72,40.1,0Z"/><ellipse class="cls-3" cx="39.84" cy="39.5" rx="35.96" ry="36.08"/><path class="cls-4" d="M8.44,51.22c-1.3-14.4,2.85-27.46,21.2-37C44.12,7,55.81,9.37,66.08,16.54,55.93,3.25,36.78.56,22.13,9,6,19.44,1.27,35.86,8.44,51.22Z"/><path class="cls-5" d="M10.62,56.57c11.16,11.16,25.14,12.95,41.45,7,15.85-7.82,21.56-19.74,21.57-34,4.26,16.87-2.93,36.21-25.19,43.92C33.7,77,18.78,70.46,10.62,56.57Z"/><ellipse class="cls-6" cx="30.27" cy="10.82" rx="2.52" ry="1.95"/><path class="cls-2" d="M14.12,23.48Q17,14.65,24.53,13.07c3.25-.41,4.11.84,1.93,1.87a21.84,21.84,0,0,0-10.88,9.3C14.88,25.43,13.9,24.84,14.12,23.48Z"/></g></g></svg>