<svg xmlns="http://www.w3.org/2000/svg" viewBox="0 0 122.96 129.45"><defs><style>.cls-1,.cls-2,.cls-3,.cls-4,.cls-5,.cls-6,.cls-7,.cls-8,.cls-9{fill-rule:evenodd;}.cls-1{opacity:0.2;}.cls-11,.cls-2{fill:#fff;}.cls-3{fill:#fdc130;}.cls-4{fill:#d49824;opacity:0.4;}.cls-5{fill:#feb62a;}.cls-6{fill:#fde765;}.cls-7{fill:#fbf2a0;}.cls-8{fill:#fde763;}.cls-9{fill:#e5e5e5;}.cls-10{fill:#d39700;}.cls-12{opacity:0.1;}</style></defs><g id="Layer_2" data-name="Layer 2"><g id="Layer_1-2" data-name="Layer 1"><path class="cls-1" d="M13.2,18.23C-4.36,35.7-4.41,99,13.12,116.47c17.34,17.31,79.38,17.31,96.72,0,17.53-17.5,17.48-80.77-.09-98.24C92,.59,30.93.59,13.2,18.23Z"/><path class="cls-2" d="M13.2,13.23C-4.36,30.71-4.41,94,13.12,111.47c17.34,17.31,79.38,17.31,96.72,0,17.53-17.5,17.48-80.76-.09-98.24C92-4.41,30.93-4.41,13.2,13.23Z"/><path class="cls-3" d="M17.74,14.74c-15.91,15.83-16,73.15-.08,89,15.71,15.68,71.92,15.68,87.63,0,15.89-15.86,15.84-73.18-.07-89C89.15-1.25,33.8-1.25,17.74,14.74Z"/><path class="cls-4" d="M105.29,91.76c-15.71,15.68-71.92,15.68-87.63,0-7-7.05-11-22.27-11.74-38.41C5,73.47,8.87,95,17.66,103.75c15.71,15.68,71.92,15.68,87.63,0C114.09,95,118,73.47,117,53.35,116.26,69.49,112.35,84.71,105.29,91.76Z"/><path class="cls-5" d="M12.65,84.44a27.54,27.54,0,0,0,5,7.32c15.71,15.68,71.92,15.68,87.63,0,6.06-6.05,9.81-18.14,11.23-31.65C87.05,81.76,52.35,89.69,12.65,84.44Z"/><path class="cls-6" d="M17.74,14.74C13,19.49,9.63,28,7.71,37.92,35.25,9.3,90.46,4.73,113.84,31.82c-2-7.28-4.86-13.34-8.62-17.08C89.15-1.25,33.8-1.25,17.74,14.74Z"/><path class="cls-7" d="M30.28,10.91C23.52,12.83,18,17.49,18,21.33s5.48,5.39,12.24,3.47,12.24-6.58,12.24-10.41S37,9,30.28,10.91Z"/><path class="cls-7" d="M50.56,5.73c-3.8.24-7.25,2.08-7.69,4.12S45.15,13.34,49,13.1,56.22,11,56.66,9,54.37,5.49,50.56,5.73Z"/><path class="cls-7" d="M97.21,83.15c-4.27,2.08-7.36,5.82-6.91,8.37s4.28,2.94,8.55.87,7.36-5.82,6.91-8.37S101.48,81.08,97.21,83.15Z"/><path class="cls-8" d="M116.52,60.11c-1.42,13.51-5.17,25.6-11.23,31.65-15.71,15.68-71.92,15.68-87.63,0a27.54,27.54,0,0,1-5-7.32c-3.92-8-6.16-19.29-6.73-31.09-.11,2.34-.16,4.71-.14,7.07,0-1.63.06-3.26.14-4.88C6.69,71.68,10.61,86.91,17.66,94c15.71,15.68,71.92,15.68,87.63,0,7.06-7,11-22.28,11.75-38.42.07,1.63.12,3.26.13,4.89,0-2.36,0-4.73-.13-7.08C116.93,55.62,116.76,57.88,116.52,60.11Z"/><path class="cls-9" d="M13.12,108.78C4.57,100.24.2,80.8,0,61.11c-.2,20.59,4.17,41.43,13.11,50.36,17.34,17.31,79.38,17.31,96.72,0,8.94-8.93,13.31-29.77,13.11-50.36-.19,19.69-4.56,39.13-13.11,47.67C92.5,126.08,30.46,126.08,13.12,108.78Z"/><path class="cls-10" d="M66,89.1A5.33,5.33,0,0,1,62.75,88L43.2,72.32H34.55A7.35,7.35,0,0,1,27.21,65V48.19a7.35,7.35,0,0,1,7.34-7.34H43.2L62.74,25.22A5.23,5.23,0,0,1,66,24.07a5.38,5.38,0,0,1,2.27.51,5.3,5.3,0,0,1,3,4.73V83.85A5.25,5.25,0,0,1,66,89.1Z"/><path class="cls-10" d="M77.26,75.16a5.23,5.23,0,0,1-3.68-9,13.59,13.59,0,0,0,0-19.21,5.25,5.25,0,0,1,3.69-9,5.2,5.2,0,0,1,3.68,1.51,24.07,24.07,0,0,1,0,34.14A5.21,5.21,0,0,1,77.26,75.16Z"/><path class="cls-10" d="M83.17,81.08a5.2,5.2,0,0,1-3.7-1.53,5.27,5.27,0,0,1,0-7.43,21.9,21.9,0,0,0,0-31.07,5.24,5.24,0,0,1,0-7.41,5.23,5.23,0,0,1,7.41,0,32.38,32.38,0,0,1,0,46A5.21,5.21,0,0,1,83.17,81.08Z"/><path class="cls-10" d="M66,85.33a5.33,5.33,0,0,1-3.27-1.14L43.2,68.55H34.55a7.35,7.35,0,0,1-7.34-7.35V44.42a7.35,7.35,0,0,1,7.34-7.34H43.2L62.74,21.45A5.23,5.23,0,0,1,66,20.3a5.38,5.38,0,0,1,2.27.51,5.3,5.3,0,0,1,3,4.73V80.08A5.25,5.25,0,0,1,66,85.33Z"/><path class="cls-11" d="M66.93,27.42a2.1,2.1,0,0,0-2.22.25L44.3,44H34.55a4.2,4.2,0,0,0-4.19,4.19V65a4.2,4.2,0,0,0,4.19,4.2H44.3L64.7,85.49a2.1,2.1,0,0,0,3.41-1.64V29.31A2.12,2.12,0,0,0,66.93,27.42Z"/><path class="cls-11" d="M78.73,41.75a2.1,2.1,0,0,0-3,3,16.72,16.72,0,0,1,0,23.69A2.1,2.1,0,0,0,77.25,72a2.07,2.07,0,0,0,1.48-.61,20.93,20.93,0,0,0,0-29.66Z"/><path class="cls-11" d="M84.65,35.84a2.1,2.1,0,1,0-3,3,25,25,0,0,1,0,35.53,2.1,2.1,0,0,0,3,3,29.25,29.25,0,0,0,0-41.49Z"/><g class="cls-12"><path d="M66.93,27.42a2.1,2.1,0,0,0-2.22.25L44.3,44H34.55a4.2,4.2,0,0,0-4.19,4.19V65a4.2,4.2,0,0,0,4.19,4.2H44.3L64.7,85.49a2.1,2.1,0,0,0,3.41-1.64V29.31A2.12,2.12,0,0,0,66.93,27.42Z"/><path d="M78.73,41.75a2.1,2.1,0,0,0-3,3,16.72,16.72,0,0,1,0,23.69A2.1,2.1,0,0,0,77.25,72a2.07,2.07,0,0,0,1.48-.61,20.93,20.93,0,0,0,0-29.66Z"/><path d="M84.65,35.84a2.1,2.1,0,1,0-3,3,25,25,0,0,1,0,35.53,2.1,2.1,0,0,0,3,3,29.25,29.25,0,0,0,0-41.49Z"/><path class="cls-11" d="M79.78,40.68a2.1,2.1,0,1,0-3,3,16.73,16.73,0,0,1,0,23.7,2.1,2.1,0,1,0,3,3,20.93,20.93,0,0,0,0-29.66Z"/><path class="cls-11" d="M85.72,34.74a2.1,2.1,0,0,0-3,3,25,25,0,0,1,0,35.53,2.1,2.1,0,0,0,3,3,29.22,29.22,0,0,0,0-41.49Z"/></g><path class="cls-11" d="M66.93,23.49a2.08,2.08,0,0,0-2.22.25L44.3,40.07H34.55a4.2,4.2,0,0,0-4.19,4.19V61a4.2,4.2,0,0,0,4.19,4.2H44.3L64.7,81.56A2.14,2.14,0,0,0,66,82a2.09,2.09,0,0,0,2.09-2.1V25.38A2.11,2.11,0,0,0,66.93,23.49Z"/></g></g></svg>