<svg xmlns="http://www.w3.org/2000/svg" viewBox="0 0 122.96 129.45"><defs><style>.cls-1,.cls-2,.cls-3,.cls-4,.cls-5,.cls-6,.cls-7,.cls-8,.cls-9{fill-rule:evenodd;}.cls-1{opacity:0.2;}.cls-11,.cls-2{fill:#fff;}.cls-3{fill:#fdc130;}.cls-4{fill:#d49824;opacity:0.4;}.cls-5{fill:#feb62a;}.cls-6{fill:#fde765;}.cls-7{fill:#fbf2a0;}.cls-8{fill:#fde763;}.cls-9{fill:#e5e5e5;}.cls-10{fill:none;stroke:#d39700;stroke-miterlimit:22.93;stroke-width:6.9px;}</style></defs><g id="Layer_2" data-name="Layer 2"><g id="Layer_1-2" data-name="Layer 1"><path class="cls-1" d="M13.2,18.23C-4.36,35.7-4.41,99,13.12,116.47c17.34,17.31,79.38,17.31,96.72,0,17.53-17.5,17.48-80.77-.09-98.24C92,.59,30.93.59,13.2,18.23Z"/><path class="cls-2" d="M13.2,13.23C-4.36,30.71-4.41,94,13.12,111.47c17.34,17.31,79.38,17.31,96.72,0,17.53-17.5,17.48-80.76-.09-98.24C92-4.41,30.93-4.41,13.2,13.23Z"/><path class="cls-3" d="M17.74,14.74c-15.91,15.83-16,73.15-.08,89,15.71,15.68,71.92,15.68,87.63,0,15.89-15.86,15.84-73.18-.07-89C89.15-1.25,33.8-1.25,17.74,14.74Z"/><path class="cls-4" d="M105.29,91.76c-15.71,15.68-71.92,15.68-87.63,0-7-7.05-11-22.27-11.74-38.41C5,73.47,8.87,95,17.66,103.75c15.71,15.68,71.92,15.68,87.63,0C114.09,95,118,73.47,117,53.35,116.26,69.49,112.35,84.71,105.29,91.76Z"/><path class="cls-5" d="M12.65,84.44a27.54,27.54,0,0,0,5,7.32c15.71,15.68,71.92,15.68,87.63,0,6.06-6.05,9.81-18.14,11.23-31.65C87.05,81.76,52.35,89.69,12.65,84.44Z"/><path class="cls-6" d="M17.74,14.74C13,19.49,9.63,28,7.71,37.92,35.25,9.3,90.46,4.73,113.84,31.82c-2-7.28-4.86-13.34-8.62-17.08C89.15-1.25,33.8-1.25,17.74,14.74Z"/><path class="cls-7" d="M30.28,10.91C23.52,12.83,18,17.49,18,21.33s5.48,5.39,12.24,3.47,12.24-6.58,12.24-10.41S37,9,30.28,10.91Z"/><path class="cls-7" d="M50.56,5.73c-3.8.24-7.25,2.08-7.69,4.12S45.15,13.34,49,13.1,56.22,11,56.66,9,54.37,5.49,50.56,5.73Z"/><path class="cls-7" d="M97.21,83.15c-4.27,2.08-7.36,5.82-6.91,8.37s4.28,2.94,8.55.87,7.36-5.82,6.91-8.37S101.48,81.08,97.21,83.15Z"/><path class="cls-8" d="M116.52,60.11c-1.42,13.51-5.17,25.6-11.23,31.65-15.71,15.68-71.92,15.68-87.63,0a27.54,27.54,0,0,1-5-7.32c-3.92-8-6.16-19.29-6.73-31.09-.11,2.34-.16,4.71-.14,7.07,0-1.63.06-3.26.14-4.88C6.69,71.68,10.61,86.91,17.66,94c15.71,15.68,71.92,15.68,87.63,0,7.06-7,11-22.28,11.75-38.42.07,1.63.12,3.26.13,4.89,0-2.36,0-4.73-.13-7.08C116.93,55.62,116.76,57.88,116.52,60.11Z"/><path class="cls-9" d="M13.12,108.78C4.57,100.24.2,80.8,0,61.11c-.2,20.59,4.17,41.43,13.11,50.36,17.34,17.31,79.38,17.31,96.72,0,8.94-8.93,13.31-29.77,13.11-50.36-.19,19.69-4.56,39.13-13.11,47.67C92.5,126.08,30.46,126.08,13.12,108.78Z"/><rect class="cls-10" x="32.24" y="25.83" width="17.33" height="17.33" rx="2.89"/><rect class="cls-10" x="52.72" y="46.93" width="17.33" height="17.33" rx="2.89"/><rect class="cls-10" x="52.72" y="68.08" width="17.33" height="17.33" rx="2.89"/><rect class="cls-10" x="32.24" y="68.08" width="17.33" height="17.33" rx="2.89"/><rect class="cls-10" x="32.24" y="46.93" width="17.33" height="17.33" rx="2.89"/><rect class="cls-10" x="52.72" y="25.83" width="17.33" height="17.33" rx="2.89"/><rect class="cls-10" x="73.38" y="46.93" width="17.33" height="17.33" rx="2.89"/><rect class="cls-10" x="73.38" y="25.83" width="17.33" height="17.33" rx="2.89"/><rect class="cls-10" x="73.38" y="68.08" width="17.33" height="17.33" rx="2.89"/><rect class="cls-11" x="52.72" y="68.08" width="17.33" height="17.33" rx="2.89"/><rect class="cls-11" x="32.24" y="25.83" width="17.33" height="17.33" rx="2.89"/><rect class="cls-11" x="32.24" y="68.08" width="17.33" height="17.33" rx="2.89"/><rect class="cls-11" x="32.24" y="46.93" width="17.33" height="17.33" rx="2.89"/><rect class="cls-11" x="73.38" y="68.08" width="17.33" height="17.33" rx="2.89"/><rect class="cls-11" x="73.38" y="25.83" width="17.33" height="17.33" rx="2.89"/><rect class="cls-11" x="73.38" y="46.93" width="17.33" height="17.33" rx="2.89"/><rect class="cls-11" x="52.72" y="25.83" width="17.33" height="17.33" rx="2.89"/><rect class="cls-11" x="52.72" y="46.93" width="17.33" height="17.33" rx="2.89"/><path class="cls-1" d="M46.69,40.3H35.13a2.9,2.9,0,0,1-2.89-2.82v2.79a2.9,2.9,0,0,0,2.89,2.89H46.69a2.9,2.9,0,0,0,2.89-2.89V37.48A2.9,2.9,0,0,1,46.69,40.3Z"/><path class="cls-1" d="M46.69,82.55H35.13a2.9,2.9,0,0,1-2.89-2.82v2.79a2.9,2.9,0,0,0,2.89,2.89H46.69a2.9,2.9,0,0,0,2.89-2.89V79.73A2.9,2.9,0,0,1,46.69,82.55Z"/><path class="cls-1" d="M67.16,61.4H55.61a2.9,2.9,0,0,1-2.89-2.82v2.79a2.9,2.9,0,0,0,2.89,2.89H67.16a2.9,2.9,0,0,0,2.89-2.89V58.58A2.9,2.9,0,0,1,67.16,61.4Z"/><path class="cls-1" d="M46.69,61.4H35.13a2.9,2.9,0,0,1-2.89-2.82v2.79a2.9,2.9,0,0,0,2.89,2.89H46.69a2.9,2.9,0,0,0,2.89-2.89V58.58A2.9,2.9,0,0,1,46.69,61.4Z"/><path class="cls-1" d="M67.16,82.55H55.61a2.9,2.9,0,0,1-2.89-2.82v2.79a2.9,2.9,0,0,0,2.89,2.89H67.16a2.9,2.9,0,0,0,2.89-2.89V79.73A2.9,2.9,0,0,1,67.16,82.55Z"/><path class="cls-1" d="M87.82,40.3H76.27a2.9,2.9,0,0,1-2.89-2.82v2.79a2.9,2.9,0,0,0,2.89,2.89H87.82a2.9,2.9,0,0,0,2.89-2.89V37.48A2.9,2.9,0,0,1,87.82,40.3Z"/><path class="cls-1" d="M67.16,40.3H55.61a2.9,2.9,0,0,1-2.89-2.82v2.79a2.9,2.9,0,0,0,2.89,2.89H67.16a2.9,2.9,0,0,0,2.89-2.89V37.48A2.9,2.9,0,0,1,67.16,40.3Z"/><path class="cls-1" d="M87.82,61.4H76.27a2.9,2.9,0,0,1-2.89-2.82v2.79a2.9,2.9,0,0,0,2.89,2.89H87.82a2.9,2.9,0,0,0,2.89-2.89V58.58A2.9,2.9,0,0,1,87.82,61.4Z"/><path class="cls-1" d="M87.82,82.55H76.27a2.9,2.9,0,0,1-2.89-2.82v2.79a2.9,2.9,0,0,0,2.89,2.89H87.82a2.9,2.9,0,0,0,2.89-2.89V79.73A2.9,2.9,0,0,1,87.82,82.55Z"/></g></g></svg>