<svg xmlns="http://www.w3.org/2000/svg" xmlns:xlink="http://www.w3.org/1999/xlink" viewBox="0 0 164.33 158.9"><defs><style>.cls-1,.cls-2,.cls-3,.cls-4,.cls-5,.cls-6,.cls-7{fill-rule:evenodd;}.cls-1{opacity:0.2;}.cls-2{fill:#fff;}.cls-3{fill:url(#GradientFill_3);}.cls-4{fill:#dbaf00;}.cls-5{fill:#e5e5e5;}.cls-6{fill:#fff61f;}.cls-7{fill:#f6c500;}.cls-8{fill:#ffe6e1;}.cls-9{fill:#1d1819;}.cls-10{fill:none;stroke:#1d1819;stroke-linecap:round;stroke-linejoin:round;stroke-width:1.49px;}</style><linearGradient id="GradientFill_3" x1="82.17" y1="127.6" x2="82.17" y2="20.37" gradientUnits="userSpaceOnUse"><stop offset="0" stop-color="#ffc421"/><stop offset="1" stop-color="#f9ed3d"/></linearGradient></defs><g id="Layer_2" data-name="Layer 2"><g id="Layer_1-2" data-name="Layer 1"><path class="cls-1" d="M159.8,54.51a19.19,19.19,0,0,0-10.35-5.32l-.39-.09-35.32-5.32-.82-2h0c-5.78-14.19-15-36.83-30.81-37C66.17,4.5,56.88,27.83,51.24,42l-.71,1.8L15.27,49.1l-.39.09A19.23,19.23,0,0,0,4.53,54.51,15.89,15.89,0,0,0,.59,61.28v.07A16.11,16.11,0,0,0,.3,68.78h0a18.2,18.2,0,0,0,5.26,9.53h0l25.74,25.28-5.67,34.16v.08a18.89,18.89,0,0,0,1.91,11.9,17.41,17.41,0,0,0,5.19,6h0a17.26,17.26,0,0,0,7.3,3h0a17.84,17.84,0,0,0,11.17-1.93v0L82.17,140.7l30.88,16.09v0a17.92,17.92,0,0,0,11.13,1.93,17,17,0,0,0,12.58-9,18.9,18.9,0,0,0,1.91-11.89v-.08L133,103.58,158.76,78.3h0A18.22,18.22,0,0,0,164,68.78h0a16.1,16.1,0,0,0-.3-7.43A15.88,15.88,0,0,0,159.8,54.51Z"/><path class="cls-2" d="M159.8,49.8a19.2,19.2,0,0,0-10.35-5.33l-.39-.08-35.32-5.33-.82-2h0C107.17,22.86,97.92.22,82.14,0c-16-.21-25.26,23.12-30.9,37.28l-.71,1.8L15.27,44.39l-.39.08A19.3,19.3,0,0,0,4.53,49.8,15.91,15.91,0,0,0,.59,56.56v.08A16.06,16.06,0,0,0,.3,64.06h0A18.19,18.19,0,0,0,5.57,73.6h0L31.32,98.87,25.65,133v.08A18.9,18.9,0,0,0,27.56,145a17.41,17.41,0,0,0,5.19,6h0a17.26,17.26,0,0,0,7.3,3h0A17.79,17.79,0,0,0,51.27,152v0L82.17,136l30.88,16.09v0A17.86,17.86,0,0,0,124.19,154a17,17,0,0,0,12.58-9,18.9,18.9,0,0,0,1.91-11.89V133L133,98.87l25.75-25.28h0A18.21,18.21,0,0,0,164,64.06h0a16.06,16.06,0,0,0-.3-7.42A15.88,15.88,0,0,0,159.8,49.8Z"/><path class="cls-3" d="M147.6,54.14,106.94,48C102.81,39.72,93.61,10,82,9.83S61.21,40.35,57.39,48L16.73,54.14c-7.83,1.52-8.57,8.26-4.3,12.41L41.86,95.44l-6.5,39.17c-1.14,7.27,5.4,11.93,11.38,8.72l35.43-18.46,35.43,18.46c6,3.21,12.51-1.45,11.37-8.72l-6.5-39.17L151.9,66.55C156.17,62.4,155.44,55.66,147.6,54.14Z"/><path class="cls-4" d="M128.51,131.8a7.55,7.55,0,0,1-10.91,3.83L82.17,117.17,46.74,135.63a7.56,7.56,0,0,1-10.92-3.83l-.46,2.81c-1.14,7.27,5.4,11.93,11.38,8.72l35.43-18.46,35.43,18.46c6,3.21,12.51-1.45,11.37-8.72Z"/><path class="cls-4" d="M151.91,58.84l-30.54,30,1.1,6.63L151.9,66.55c2.81-2.73,3.45-6.58,1.34-9.33A9.53,9.53,0,0,1,151.91,58.84Z"/><path class="cls-4" d="M11.09,57.22C9,60,9.62,63.82,12.43,66.55L41.86,95.44,43,88.81l-30.54-30A10,10,0,0,1,11.09,57.22Z"/><path class="cls-5" d="M136.77,140.59a17.36,17.36,0,0,1-5.2,6,17.14,17.14,0,0,1-7.38,3,18,18,0,0,1-11.14-1.9L82.17,131.58l-30.9,16a17.6,17.6,0,0,1-18.52-1,17.5,17.5,0,0,1-5.19-6,18.34,18.34,0,0,1-2-6.58,18.77,18.77,0,0,0,2,11,17,17,0,0,0,5.24,6,17.41,17.41,0,0,0,7.3,3,18.07,18.07,0,0,0,11.18-1.9L82.17,136l30.89,16A17.86,17.86,0,0,0,124.19,154a17,17,0,0,0,12.58-9,18.78,18.78,0,0,0,2-11A18.23,18.23,0,0,1,136.77,140.59Z"/><path class="cls-6" d="M82,9.83C70.43,9.67,61.21,40.35,57.39,48L16.73,54.14a9.08,9.08,0,0,0-5.64,3.08l1.33,1.62L28.54,74.66c14.59-7,32.74-13.51,52.8-18.61a321.51,321.51,0,0,1,34.08-6.76L106.94,48C102.81,39.72,93.61,10,82,9.83Z"/><path class="cls-7" d="M95.48,111.75c-21.12,5.36-41.14,8.32-57.81,9l-1.85,11.1a7.56,7.56,0,0,0,10.92,3.83l35.43-18.46,35.43,18.46a7.55,7.55,0,0,0,10.91-3.83l-4.75-28.59C114.94,106.33,105.44,109.21,95.48,111.75Z"/><path class="cls-8" d="M56.07,77.84a8.61,8.61,0,0,1-4.65,6.43,31.69,31.69,0,0,1-9.25-14.59A8.76,8.76,0,0,1,48.77,68,8.66,8.66,0,0,1,56.07,77.84Z"/><path class="cls-8" d="M122.17,71.24a32,32,0,0,1-10,14A8.68,8.68,0,0,1,117.47,69,8.5,8.5,0,0,1,122.17,71.24Z"/><path class="cls-9" d="M71.9,67.19a4.85,4.85,0,1,1-4.05-5.53A4.84,4.84,0,0,1,71.9,67.19Z"/><path class="cls-9" d="M103.06,67.3a4.85,4.85,0,1,1-4-5.53A4.85,4.85,0,0,1,103.06,67.3Z"/><path class="cls-10" d="M79.19,75.74a3.94,3.94,0,0,1,5-3.86A4.32,4.32,0,0,1,87,75.64"/></g></g></svg>