<svg xmlns="http://www.w3.org/2000/svg" viewBox="0 0 468.02 454.88"><defs><style>.cls-1{isolation:isolate;}.cls-2,.cls-6{fill:#ffca08;}.cls-12,.cls-14,.cls-2,.cls-7,.cls-8,.cls-9{stroke:#832f0a;stroke-linecap:round;stroke-linejoin:round;stroke-width:0.92px;}.cls-3{fill:#fdb816;}.cls-4{fill:#fee537;}.cls-5{opacity:0.5;}.cls-10,.cls-5,.cls-9{mix-blend-mode:multiply;}.cls-11,.cls-7{fill:#ab6f22;}.cls-8,.cls-9{fill:#784e15;}.cls-9{opacity:0.21;}.cls-10{opacity:0.38;}.cls-12{fill:#9dcb3b;}.cls-13{fill:#832f0a;}.cls-14{fill:#5aa845;}</style></defs><g class="cls-1"><g id="Layer_2" data-name="Layer 2"><g id="Layer_1-2" data-name="Layer 1"><path class="cls-2" d="M305.13,221.06l58.73,4.59c44-1.84,60.55-19,60.55-19s-9.17-26-33.33-26c-5.51,10.7-31.2,13.45-78,7.34S266,162.34,266,162.34c-9.16,3.45-27.38,25.19-40.81,51.06A165.82,165.82,0,0,0,305.13,221.06Z"/><path class="cls-2" d="M313.08,188c46.8,6.11,72.49,3.36,78-7.34-4.28-19.27-30.59-38.84-76.77-40.68,0,0-41.9.92-48.32,22.33C266,162.34,266.29,181.91,313.08,188Z"/><path class="cls-2" d="M455.61,312.51l.61,0A3.93,3.93,0,0,0,455.61,312.51Z"/><path class="cls-2" d="M456.22,312.47l-.61,0c-25.69,23.24-67.29,22.94-67.29,22.94l-115,2.14c-45.26,9.48-65.45-7.95-65.45-7.95s-18.65,9.78-17.12,34.25,32.72,41.44,32.72,41.44c140.69,41.45,215.16-33.95,215.16-33.95s21-17.89,24.93-39.3C467,313.61,458.59,312.44,456.22,312.47Z"/><path class="cls-2" d="M262.31,282.23l131.83-18.66S430.53,265.71,448,248c0,0,5.19-15-1.84-27.52s-21.72-13.77-21.72-13.77-16.51,17.13-60.55,19l-58.73-4.59a165.82,165.82,0,0,1-79.95-7.66c-6.76,13-12.3,27.08-14.86,40.39C207,271.53,217.66,277,217.66,277S244,289.57,262.31,282.23Z"/><path class="cls-2" d="M223.47,405.33s-6.42,44,93.13,49.09c70.2,0,121.12-60.1,122-83C438.63,371.38,364.16,446.78,223.47,405.33Z"/><path class="cls-2" d="M273.32,337.59l115-2.14s41.6.3,67.29-22.94c0,0,12.54-13.15,11.93-39.46S448,248,448,248c-17.44,17.74-53.83,15.6-53.83,15.6L262.31,282.23c-18.35,7.34-44.65-5.2-44.65-5.2s-18,13.76-18.66,29.06,8.87,23.55,8.87,23.55S228.06,347.07,273.32,337.59Z"/><path class="cls-3" d="M419.83,367.94a9,9,0,1,1-8.95-8.48A8.73,8.73,0,0,1,419.83,367.94Z"/><path class="cls-3" d="M429.46,362.44c0,1.9-1.23,3.44-2.75,3.44s-2.75-1.54-2.75-3.44,1.23-3.44,2.75-3.44S429.46,360.54,429.46,362.44Z"/><path class="cls-4" d="M451.48,294.77c0,4.56-4,8.26-8.94,8.26s-9-3.7-9-8.26,4-8.26,9-8.26S451.48,290.21,451.48,294.77Z"/><path class="cls-4" d="M453.32,281a3.45,3.45,0,1,1-3.45-3.67A3.56,3.56,0,0,1,453.32,281Z"/><path class="cls-4" d="M432.67,240.86c0,3.93-3.49,7.11-7.8,7.11s-7.8-3.18-7.8-7.11,3.5-7.11,7.8-7.11S432.67,236.94,432.67,240.86Z"/><path class="cls-4" d="M438.18,229.85a3.44,3.44,0,1,1-3.44-3.44A3.44,3.44,0,0,1,438.18,229.85Z"/><path class="cls-4" d="M293.2,158.05c0,3.55-3.18,6.43-7.11,6.43S279,161.6,279,158.05s3.19-6.42,7.11-6.42S293.2,154.51,293.2,158.05Z"/><path class="cls-4" d="M290,172.51a3.47,3.47,0,1,1-3.44-3A3.24,3.24,0,0,1,290,172.51Z"/><path class="cls-4" d="M269.35,198.89c0,1.77-2,3.21-4.36,3.21s-4.36-1.44-4.36-3.21,2-3.22,4.36-3.22S269.35,197.11,269.35,198.89Z"/><path class="cls-4" d="M277.15,208.06a2.76,2.76,0,1,1-2.76-2.75A2.76,2.76,0,0,1,277.15,208.06Z"/><path class="cls-4" d="M226.68,264a6,6,0,1,1-6-6.42A6.19,6.19,0,0,1,226.68,264Z"/><path class="cls-4" d="M229.89,273.66a2.35,2.35,0,1,1-2.29-1.83A2.1,2.1,0,0,1,229.89,273.66Z"/><path class="cls-4" d="M233.11,309.91a8.49,8.49,0,1,1-8.49-8.26A8.38,8.38,0,0,1,233.11,309.91Z"/><path class="cls-4" d="M236.78,325.74a3.68,3.68,0,1,1-3.67-3.45A3.56,3.56,0,0,1,236.78,325.74Z"/><path class="cls-3" d="M215.67,369.78c0,4.43-3.08,8-6.88,8s-6.88-3.6-6.88-8,3.08-8,6.88-8S215.67,365.34,215.67,369.78Z"/><path class="cls-3" d="M228.52,378.49a4.38,4.38,0,1,1-4.36-4.81A4.6,4.6,0,0,1,228.52,378.49Z"/><path class="cls-3" d="M257.88,398a4.61,4.61,0,1,1-4.59-4.13A4.38,4.38,0,0,1,257.88,398Z"/><path class="cls-3" d="M401.93,411.3a5.73,5.73,0,1,1-5.73-6A5.85,5.85,0,0,1,401.93,411.3Z"/><g class="cls-5"><path class="cls-6" d="M388,172.71c-4.89,8.79-22.92,16-63.16,9.2-33.94-5.7-48.47-17.42-54.66-27a19.6,19.6,0,0,0-4.21,7.42s.3,19.57,47.09,25.69,72.49,3.36,78-7.34A31,31,0,0,0,388,172.71Z"/></g><g class="cls-5"><path class="cls-6" d="M416.28,193.06c-9.46,8.3-33.14,18.19-92.34,16.84-45.73-1.05-71.59-9.2-86.21-17.6a214.82,214.82,0,0,0-12.55,21.1,165.82,165.82,0,0,0,79.95,7.66l58.73,4.59c44-1.84,60.55-19,60.55-19A48.74,48.74,0,0,0,416.28,193.06Z"/></g><g class="cls-5"><path class="cls-6" d="M354.68,254.85c-62.56-8-100.32,43.11-144.64.81-2.27,16.23,7.62,21.37,7.62,21.37s26.3,12.54,44.65,5.2l131.83-18.66S430.53,265.71,448,248a42.16,42.16,0,0,0,1.78-14.21C437.78,244.21,408.06,263,354.68,254.85Z"/></g><g class="cls-5"><path class="cls-6" d="M200,315.59a29.5,29.5,0,0,0,7.89,14.05s20.19,17.43,65.45,7.95l115-2.14s41.6.3,67.29-22.94a39.36,39.36,0,0,0,6.08-9.63c-41.16,28.72-104.76,19-181.33,22.63C234.36,327.55,211.43,321.86,200,315.59Z"/></g><g class="cls-5"><path class="cls-6" d="M312.93,402.12c-84.12.68-112.81-29.49-122-45.26a41.7,41.7,0,0,0-.13,7c1.53,24.47,32.72,41.44,32.72,41.44,140.69,41.45,215.16-33.95,215.16-33.95s17.26-14.73,23.42-33.46C443.51,359.68,397,401.44,312.93,402.12Z"/></g><g class="cls-5"><path class="cls-6" d="M310.18,443c-40,1.65-66-9.33-80.36-18.43,9.34,12.56,32,27.12,86.78,29.9,47.73,0,86.52-27.78,106.77-52.77C397.75,422.93,364.31,440.73,310.18,443Z"/></g><path class="cls-7" d="M388.51,253.12a85.84,85.84,0,0,1,6.54,33.09c0,42.9-30.81,77.68-68.81,77.68-24.77,0-46.48-14.78-58.6-36.95,11,26.35,34.75,44.6,62.26,44.6,38,0,68.82-34.78,68.82-77.69A84.87,84.87,0,0,0,388.51,253.12Z"/><path class="cls-8" d="M326.24,363.89c38,0,68.81-34.78,68.81-77.68a85.84,85.84,0,0,0-6.54-33.09c-12.13-22.17-33.83-37-58.61-37-38,0-68.81,34.78-68.81,77.68a85.84,85.84,0,0,0,6.55,33.09C279.76,349.11,301.47,363.89,326.24,363.89Z"/><path class="cls-9" d="M388.51,253.12a74.28,74.28,0,0,0-22.78-25.56,78.64,78.64,0,0,1,8.71,12.71A85.84,85.84,0,0,1,381,273.36c0,42.91-30.82,77.68-68.82,77.68a62.68,62.68,0,0,1-35.82-11.39c12.53,14.92,30.24,24.24,49.89,24.24,38,0,68.81-34.78,68.81-77.68A85.84,85.84,0,0,0,388.51,253.12Z"/><path class="cls-7" d="M320.5,95.66s.23,35.79,8.72,46.11c4.82,5.5.92,14-10.09,14.68s-16.52-7.57-12.39-11.93,8.95-8.72,8.71-25.23-.22-19.73-.22-19.73Z"/><g class="cls-10"><path class="cls-11" d="M329.22,141.77c-8.49-10.32-8.72-46.11-8.72-46.11l-2.34,1.74c.14,8.63.83,20.66,3.18,31.45,4.19,19.13.92,24.92-7,23.39-4.36-.84-6.6-4.43-7.73-7.51-3.77,4.41,1.71,12.4,12.55,11.72C330.14,155.76,334,147.27,329.22,141.77Z"/></g><path class="cls-7" d="M164.75,135.57s9.63-28.44,17.89-47.25-19.72,17-32.11,54.14C163.37,135.57,164.75,135.57,164.75,135.57Z"/><path class="cls-7" d="M8.46,275.5c71-116.22,208-176.17,296.67-203.7s97.27-10.39,80.75-4.89c-72.8,26.92-202.47,115-225.72,154.15,33.64-17.74,66.07-12.23,50.77-7.95-99.7,7.34-141.3,157.81-141.3,157.81C60.45,405.18-25.79,345.23,8.46,275.5Z"/><path class="cls-12" d="M180,88.93s-34.48-19.86-21.41-33.64C170,43.36,178.51,74.56,180,88.93Z"/><path class="cls-13" d="M179.43,88.17a.5.5,0,0,1-.35-.16c-12.13-14-20.78-32.34-20.86-32.53a.46.46,0,0,1,.83-.39c.09.19,8.68,18.46,20.73,32.32a.46.46,0,0,1-.05.64.42.42,0,0,1-.3.12Z"/><path class="cls-14" d="M182.18,85.87s7.34-13.15,26-17.74S229.89,92.3,182.18,85.87Z"/><path class="cls-13" d="M182.18,86.33a.46.46,0,0,1-.31-.8c.16-.14,16.25-14.5,34.6-13.27a.46.46,0,1,1-.07.92c-18-1.19-33.75,12.89-33.91,13a.47.47,0,0,1-.31.12Z"/><path class="cls-12" d="M180,88.93s-3-43.12,18.36-46.18C217.66,40.91,192,79.15,180,88.93Z"/><path class="cls-13" d="M180,89.39l-.13,0a.46.46,0,0,1-.31-.57c.37-1.2,9-29.59,18.78-39a.46.46,0,0,1,.64.66c-9.59,9.29-18.45,38.35-18.54,38.64a.46.46,0,0,1-.44.33Z"/><path class="cls-13" d="M17.63,341.1a.35.35,0,0,1-.2-.05.45.45,0,0,1-.2-.62c26.59-51.12,52.53-87.79,68-109.71,8.71-12.31,15-21.21,14-22.65-.14-.2-.65-.2-1.38,0C67.24,220.07,7.62,317,7,318a.47.47,0,0,1-.63.15.46.46,0,0,1-.16-.63c.6-1,60.39-98.15,91.37-110.3.5-.12,1.84-.46,2.42.38,1.28,1.87-2.61,7.55-14,23.7-15.48,21.9-41.39,58.54-68,109.61a.46.46,0,0,1-.41.24Z"/><path class="cls-13" d="M37.82,332.85a.46.46,0,0,1-.22-.06.47.47,0,0,1-.18-.63c.61-1.07,61-107.59,99.77-150.56,7.6-7.77,11-13.64,9.05-15.72-4.48-4.82-34.05,8.16-72,40.24a.46.46,0,0,1-.65-.06.45.45,0,0,1,.06-.64c36.52-30.85,67.93-45.93,73.29-40.17,2.41,2.6-.72,8.47-9,17-38.66,42.88-99,149.31-99.64,150.38a.46.46,0,0,1-.4.24Z"/><path class="cls-13" d="M62.29,352.42a.41.41,0,0,1-.16,0,.45.45,0,0,1-.27-.59c.41-1,41.15-103.68,105.91-175.7,15.83-16.72,22.78-31.07,18.17-37.46-4.15-5.74-17.31-4.16-35.22,4.23a.46.46,0,0,1-.61-.22.47.47,0,0,1,.22-.61c18.61-8.72,31.86-10.15,36.35-3.93,5,6.87-1.85,21.3-18.23,38.61C103.81,248.61,63.12,351.1,62.72,352.13a.48.48,0,0,1-.43.29Z"/><path class="cls-13" d="M160.16,201.33a.42.42,0,0,1-.28-.1.46.46,0,0,1-.08-.64c.5-.63,50.72-63,145.15-104.74a.46.46,0,0,1,.37.84C211.1,138.36,161,200.53,160.52,201.16a.48.48,0,0,1-.36.17Z"/><path class="cls-13" d="M278.22,100.4a.45.45,0,0,1-.4-.23.46.46,0,0,1,.18-.63c.6-.34,61-33.75,96.79-39.81a.46.46,0,0,1,.53.37.46.46,0,0,1-.38.53c-35.6,6-95.89,39.38-96.5,39.71a.43.43,0,0,1-.22.06Z"/><path class="cls-13" d="M209.1,131a.46.46,0,0,1-.38-.2.47.47,0,0,1,.11-.64c.36-.25,36.62-25.9,78.4-41.65a.46.46,0,1,1,.33.86c-41.67,15.7-77.84,41.28-78.2,41.54a.43.43,0,0,1-.26.09Z"/><g class="cls-10"><path class="cls-11" d="M98.38,274.89C49.43,374.45-8.11,334.42,4.86,284c-23.69,66,56,119.75,64.77,86.89,0,0,41.6-150.47,141.3-157.81,15.3-4.28-17.13-9.79-50.77,7.95C183.41,181.91,313.08,93.83,385.88,66.91c3.78-1.26,6.24-3.13,6.73-4.94C332.44,83.24,170.37,150.15,98.38,274.89Z"/></g><path class="cls-12" d="M210.72,210.91s14-5.58,31.37,2.62S243.71,246,210.72,210.91Z"/><path class="cls-13" d="M245.6,222.76a.47.47,0,0,1-.31-.12c-13.18-12.25-34.33-11.27-34.54-11.27a.45.45,0,0,1-.49-.43.47.47,0,0,1,.44-.48c.21,0,21.76-1,35.21,11.51a.45.45,0,0,1,0,.64.46.46,0,0,1-.34.15Z"/><path class="cls-14" d="M209.22,210.72s17.08,5.94,24.39,24.05S205.16,259,209.22,210.72Z"/><path class="cls-13" d="M228.55,243.94a.47.47,0,0,1-.46-.46c0-18-19-32.24-19.14-32.39a.46.46,0,0,1-.1-.64.47.47,0,0,1,.65-.09c.19.14,19.51,14.69,19.51,33.12a.47.47,0,0,1-.46.46Z"/><path class="cls-12" d="M209.31,210.85s19.8-38.43,39.68-29.92C266.4,189.37,224.59,208.69,209.31,210.85Z"/><path class="cls-13" d="M209.31,211.31a.46.46,0,0,1-.34-.15.47.47,0,0,1,0-.65c.94-.84,23.08-20.59,36.34-23.6a.47.47,0,0,1,.55.35.47.47,0,0,1-.35.55c-13,2.95-35.7,23.18-35.92,23.39a.51.51,0,0,1-.31.11Z"/><path class="cls-12" d="M392.43,49.06S432.33,18.18,449.15,37C463.4,54.51,409.65,54.31,392.43,49.06Z"/><path class="cls-13" d="M392.43,49.52a.46.46,0,0,1-.13-.9c1.4-.43,34.55-10.39,50-7a.45.45,0,0,1,.35.55.46.46,0,0,1-.55.35c-15.24-3.31-49.22,6.9-49.56,7l-.13,0Z"/><path class="cls-14" d="M402.08,49.74S422,44.55,440.29,57,428.71,97.82,402.08,49.74Z"/><path class="cls-13" d="M441,68.9a.44.44,0,0,1-.38-.2c-11.37-17-38.31-18.49-38.58-18.5a.47.47,0,0,1-.44-.48.47.47,0,0,1,.48-.44c.28,0,27.67,1.54,39.3,18.91a.47.47,0,0,1-.12.64.51.51,0,0,1-.26.07Z"/><path class="cls-14" d="M388.56,62.3s22.51-.54,38.92,17.39S404.87,120.29,388.56,62.3Z"/><path class="cls-13" d="M425.39,92.51a.46.46,0,0,1-.43-.3c-7.86-21-36.24-29.39-36.53-29.47a.46.46,0,0,1-.31-.57.45.45,0,0,1,.57-.31c.29.08,29.11,8.6,37.13,30a.46.46,0,0,1-.27.59.45.45,0,0,1-.16,0Z"/><path class="cls-12" d="M384.54,60.88s-11.66,16.07-6.87,37S418.47,101.78,384.54,60.88Z"/><path class="cls-13" d="M387.69,103a.47.47,0,0,1-.38-.19C375.76,86.2,384,61,384.11,60.74a.47.47,0,0,1,.59-.29A.46.46,0,0,1,385,61c-.08.25-8.21,25,3.09,41.23a.46.46,0,0,1-.12.64.4.4,0,0,1-.26.08Z"/><path class="cls-14" d="M381.37,48s23.1-44.85,46.3-34.92C448,22.94,399.2,45.48,381.37,48Z"/><path class="cls-13" d="M381.37,48.46a.46.46,0,0,1-.34-.15.47.47,0,0,1,0-.65c1.09-1,26.91-24,42.35-27.52a.48.48,0,0,1,.56.35.46.46,0,0,1-.35.54C408.42,24.49,382,48.1,381.68,48.34a.47.47,0,0,1-.31.12Z"/><path class="cls-12" d="M367.9,59s17.46-18.51,44.92-17.44S427.46,92.05,367.9,59Z"/><path class="cls-13" d="M367.9,59.5a.46.46,0,0,1-.22-.86c.29-.16,30-16.54,53.59-6a.46.46,0,0,1,.23.61.45.45,0,0,1-.6.23c-23.15-10.4-52.48,5.75-52.78,5.91a.46.46,0,0,1-.22.06Z"/><path class="cls-12" d="M371.85,59.43S363,35.56,337.34,25.8,304.12,66.5,371.85,59.43Z"/><path class="cls-13" d="M371.85,59.89a.49.49,0,0,1-.36-.18c-.21-.27-20.49-26.1-45.53-26.1h-.72a.48.48,0,0,1-.47-.45.45.45,0,0,1,.45-.47H326c25.5,0,46.05,26.19,46.26,26.46a.46.46,0,0,1-.09.64.48.48,0,0,1-.28.1Z"/><path class="cls-12" d="M370.85,58.72s-12.76-22-3.92-48S419.47,11,370.85,58.72Z"/><path class="cls-13" d="M370.85,59.18a.46.46,0,0,1-.45-.36c-.08-.34-7.28-33.5,9.58-53.07a.46.46,0,0,1,.64,0,.47.47,0,0,1,.06.65c-16.58,19.23-9.46,51.94-9.39,52.27a.44.44,0,0,1-.34.54l-.07,0Z"/></g></g></g></svg>